<svg id="Calque_1" data-name="Calque 1" xmlns="http://www.w3.org/2000/svg" xmlns:xlink="http://www.w3.org/1999/xlink" viewBox="0 0 310.44 43.72"><defs><style>.cls-1{fill:none;}.cls-2{clip-path:url(#clip-path);}.cls-3{fill:#96a5d4;}.cls-4{fill:#034ea2;}.cls-5{fill:#fff;}.cls-6{fill:#fff200;}</style><clipPath id="clip-path" transform="translate(-19.02 -18.14)"><rect class="cls-1" width="349.12" height="76.77"/></clipPath></defs><title>logo</title><g class="cls-2"><path class="cls-3" d="M98.33,26.83a2.88,2.88,0,0,1,2.85,2.38c1.31.12,2.6.24,3.87.38-.53-3.28-2.69-6-6.72-6a6.82,6.82,0,0,0-6.58,4.87c1.29.08,2.57.16,3.84.26a2.87,2.87,0,0,1,2.74-1.92" transform="translate(-19.02 -18.14)"/><path class="cls-3" d="M23.06,19.57H19V32c1.31-.25,2.66-.49,4-.72Z" transform="translate(-19.02 -18.14)"/><path class="cls-3" d="M47.82,27.3h3.31V23.89H47.82V20.28h-4v3.61H42.14V27.3h1.68v1.55l4-.28Z" transform="translate(-19.02 -18.14)"/><path class="cls-3" d="M60.36,26.83a2.7,2.7,0,0,1,2.26,1.11c1.33,0,2.67-.05,4-.06a6.31,6.31,0,0,0-6.27-4.26,6.81,6.81,0,0,0-6.5,4.61L58,28.07a2.76,2.76,0,0,1,2.37-1.24" transform="translate(-19.02 -18.14)"/><path class="cls-3" d="M77.32,27.92a6.07,6.07,0,0,1,1.16-.12h.21V23.62c-2.37-.1-3.68,1.16-4.5,3.11V23.89h-4v4h.22c2.32,0,4.63,0,6.91.06" transform="translate(-19.02 -18.14)"/><path class="cls-3" d="M89.47,27.8h.21V23.62c-2.37-.1-3.68,1.16-4.5,3.11V23.89h-4V28q3.11.09,6.17.23a4.65,4.65,0,0,1,2.11-.45" transform="translate(-19.02 -18.14)"/><path class="cls-3" d="M111,30.25V30.2a3.44,3.44,0,0,1,6.87,0v.05a3.49,3.49,0,0,1-.16,1c1.4.23,2.77.47,4.1.73V23.89h-4v1.84a5.66,5.66,0,0,0-4.54-2.11A6.16,6.16,0,0,0,107,29.81c1.34.15,2.67.32,4,.49,0,0,0,0,0-.05" transform="translate(-19.02 -18.14)"/><path class="cls-3" d="M32.29,27.33a3.7,3.7,0,0,1,1.14-.25,3.7,3.7,0,0,1,1.13.25,2.63,2.63,0,0,1,1.61,2.22c1.27-.14,2.55-.26,3.85-.38a6.78,6.78,0,0,0-3.57-4.74,6.05,6.05,0,0,0-6.05,0,7.06,7.06,0,0,0-3.76,6.31l4-.55a2.78,2.78,0,0,1,1.65-2.86" transform="translate(-19.02 -18.14)"/><path class="cls-4" d="M91.36,31a7.44,7.44,0,0,0,13.12,4.65l-2.29-2a4.58,4.58,0,0,1-3.41,1.45,3.28,3.28,0,0,1-3.45-2.76h9.81c0-.37,0-.74,0-1.06a10.39,10.39,0,0,0-.14-1.68c-1.27-.14-2.56-.26-3.87-.38a5.25,5.25,0,0,1,.12.62h-6a4.87,4.87,0,0,1,.31-1.08c-1.27-.1-2.55-.18-3.84-.26A8,8,0,0,0,91.36,31Z" transform="translate(-19.02 -18.14)"/><path class="cls-4" d="M23.06,38V31.3c-1.38.23-2.73.47-4,.72v6Z" transform="translate(-19.02 -18.14)"/><path class="cls-4" d="M47.92,38.22a5.9,5.9,0,0,0,3.16-.82V34.19a4,4,0,0,1-2,.5c-.89,0-1.28-.44-1.28-1.36V28.57l-4,.28V34c0,3.26,1.66,4.24,4.1,4.24" transform="translate(-19.02 -18.14)"/><path class="cls-4" d="M53.39,31a7.44,7.44,0,0,0,13.12,4.65l-2.29-2a4.58,4.58,0,0,1-3.41,1.45,3.28,3.28,0,0,1-3.45-2.76h9.81c0-.37,0-.74,0-1.06a9.7,9.7,0,0,0-.59-3.39c-1.34,0-2.68,0-4,.06a4,4,0,0,1,.71,1.89h-6A4.41,4.41,0,0,1,58,28.07l-4.13.16A8.2,8.2,0,0,0,53.39,31Z" transform="translate(-19.02 -18.14)"/><path class="cls-4" d="M74.19,38V32.77c0-2.84,1.17-4.42,3.13-4.85-2.28,0-4.59-.06-6.91-.06h-.22V38Z" transform="translate(-19.02 -18.14)"/><path class="cls-4" d="M85.18,38V32.77c0-2.34.8-3.83,2.18-4.52q-3.06-.13-6.17-.23V38Z" transform="translate(-19.02 -18.14)"/><path class="cls-4" d="M107,30.25a6.19,6.19,0,0,0,6.26,6.57,5.52,5.52,0,0,0,4.6-2.29v.69c0,2.52-1.29,3.84-4,3.84a9.22,9.22,0,0,1-4.75-1.29l-1.37,3A13.44,13.44,0,0,0,114,42.24c2.73,0,4.76-.58,6.07-1.89s1.79-3,1.79-5.55V32c-1.33-.26-2.7-.5-4.1-.73a3.34,3.34,0,0,1-3.29,2.22A3.21,3.21,0,0,1,111,30.3c-1.31-.17-2.64-.34-4-.49,0,.13,0,.25,0,.39Z" transform="translate(-19.02 -18.14)"/><path class="cls-4" d="M36.22,30.23V38h4V31a8,8,0,0,0-.2-1.78c-1.29.12-2.58.24-3.85.38a4.83,4.83,0,0,1,0,.68" transform="translate(-19.02 -18.14)"/><path class="cls-4" d="M26.64,31v7h4V30.19l-4,.55V31Z" transform="translate(-19.02 -18.14)"/><path class="cls-4" d="M213.73,32.08l1.82.58a4.09,4.09,0,0,1-1.39,2.26,4,4,0,0,1-2.48.74,4,4,0,0,1-3-1.27,4.82,4.82,0,0,1-1.2-3.46,5.09,5.09,0,0,1,1.2-3.61A4.15,4.15,0,0,1,211.8,26a3.83,3.83,0,0,1,2.77,1,3.57,3.57,0,0,1,1,1.71l-1.86.44a2,2,0,0,0-.68-1.14,2,2,0,0,0-1.28-.42,2.11,2.11,0,0,0-1.68.75,3.61,3.61,0,0,0-.64,2.4,3.94,3.94,0,0,0,.63,2.52,2.11,2.11,0,0,0,1.66.74,1.86,1.86,0,0,0,1.28-.47,2.81,2.81,0,0,0,.78-1.5" transform="translate(-19.02 -18.14)"/><path class="cls-4" d="M216.74,32a3.62,3.62,0,0,1,.43-1.71,3,3,0,0,1,1.25-1.27,3.57,3.57,0,0,1,1.79-.44,3.39,3.39,0,0,1,2.51,1,3.43,3.43,0,0,1,1,2.51,3.51,3.51,0,0,1-1,2.54,3.35,3.35,0,0,1-2.49,1,3.91,3.91,0,0,1-1.77-.42A2.9,2.9,0,0,1,217.17,34a4.14,4.14,0,0,1-.43-2m1.82.1a2.24,2.24,0,0,0,.48,1.54,1.57,1.57,0,0,0,2.35,0,2.31,2.31,0,0,0,.47-1.55,2.28,2.28,0,0,0-.47-1.53,1.57,1.57,0,0,0-2.35,0,2.24,2.24,0,0,0-.48,1.54" transform="translate(-19.02 -18.14)"/><rect class="cls-4" x="205.87" y="13.1" width="3.5" height="1.78"/><path class="cls-4" d="M228.64,28.76h1v-.51a3.38,3.38,0,0,1,.18-1.27,1.42,1.42,0,0,1,.67-.68,2.49,2.49,0,0,1,1.23-.26,5.07,5.07,0,0,1,1.49.22L233,27.51a3.46,3.46,0,0,0-.82-.1.74.74,0,0,0-.56.18,1,1,0,0,0-.17.69v.48h1.34v1.4h-1.34V35.5h-1.78V30.16h-1Z" transform="translate(-19.02 -18.14)"/><path class="cls-4" d="M238.19,35.5v-1a2.57,2.57,0,0,1-1,.85,2.68,2.68,0,0,1-1.27.31,2.59,2.59,0,0,1-1.22-.29,1.76,1.76,0,0,1-.78-.84,3.76,3.76,0,0,1-.24-1.49V28.76h1.78v3.1a8.92,8.92,0,0,0,.1,1.74,1,1,0,0,0,.36.51,1.12,1.12,0,0,0,.66.19,1.38,1.38,0,0,0,.82-.26,1.18,1.18,0,0,0,.49-.62,7,7,0,0,0,.14-1.82V28.76h1.78V35.5Z" transform="translate(-19.02 -18.14)"/><path class="cls-4" d="M247.82,35.5H246V32.06a5,5,0,0,0-.12-1.41,1,1,0,0,0-.37-.5,1,1,0,0,0-.62-.18,1.46,1.46,0,0,0-.83.26,1.29,1.29,0,0,0-.5.67,5.79,5.79,0,0,0-.14,1.55v3h-1.78V28.76h1.65v1a2.71,2.71,0,0,1,2.23-1.14,2.65,2.65,0,0,1,1.07.21,1.72,1.72,0,0,1,.74.54,1.85,1.85,0,0,1,.35.75,5.29,5.29,0,0,1,.1,1.2Z" transform="translate(-19.02 -18.14)"/><path class="cls-4" d="M255.81,35.5h-1.65v-1a2.66,2.66,0,0,1-1,.86,2.45,2.45,0,0,1-1.13.28,2.58,2.58,0,0,1-2-.93,3.85,3.85,0,0,1-.83-2.62,3.73,3.73,0,0,1,.81-2.6,2.58,2.58,0,0,1,2-.89,2.51,2.51,0,0,1,2,.94V26.2h1.78ZM251.05,32a3.13,3.13,0,0,0,.3,1.57,1.36,1.36,0,0,0,1.21.69,1.28,1.28,0,0,0,1-.52,2.4,2.4,0,0,0,.44-1.56,2.65,2.65,0,0,0-.42-1.68,1.38,1.38,0,0,0-2.14,0,2.29,2.29,0,0,0-.43,1.5" transform="translate(-19.02 -18.14)"/><path class="cls-4" d="M261.47,33.36l1.78.29a2.9,2.9,0,0,1-1.08,1.49,3.18,3.18,0,0,1-1.85.51,3,3,0,0,1-2.6-1.15,3.8,3.8,0,0,1-.67-2.32,3.68,3.68,0,0,1,.88-2.62,2.85,2.85,0,0,1,2.21-.95,3,3,0,0,1,2.38,1,4.42,4.42,0,0,1,.83,3h-4.47a1.84,1.84,0,0,0,.43,1.24,1.38,1.38,0,0,0,1,.44,1.09,1.09,0,0,0,.7-.23,1.37,1.37,0,0,0,.43-.73m.11-1.81a1.8,1.8,0,0,0-.4-1.18,1.28,1.28,0,0,0-.93-.4,1.24,1.24,0,0,0-1,.43,1.67,1.67,0,0,0-.37,1.15Z" transform="translate(-19.02 -18.14)"/><path class="cls-4" d="M271,35.5h-1.65v-1a2.66,2.66,0,0,1-1,.86,2.45,2.45,0,0,1-1.13.28,2.58,2.58,0,0,1-2-.93,3.85,3.85,0,0,1-.83-2.62,3.73,3.73,0,0,1,.81-2.6,2.58,2.58,0,0,1,2-.89,2.51,2.51,0,0,1,2,.94V26.2H271ZM266.22,32a3.13,3.13,0,0,0,.3,1.57,1.36,1.36,0,0,0,1.21.69,1.28,1.28,0,0,0,1-.52,2.4,2.4,0,0,0,.44-1.56,2.65,2.65,0,0,0-.42-1.68,1.38,1.38,0,0,0-2.14,0,2.29,2.29,0,0,0-.43,1.5" transform="translate(-19.02 -18.14)"/><path class="cls-4" d="M276.28,35.5V26.2h1.78v3.35a2.51,2.51,0,0,1,2-.94,2.58,2.58,0,0,1,2,.89,3.67,3.67,0,0,1,.81,2.56,3.89,3.89,0,0,1-.82,2.66,2.57,2.57,0,0,1-2,.93,2.41,2.41,0,0,1-1.14-.29,2.66,2.66,0,0,1-1-.85v1ZM278.05,32a2.86,2.86,0,0,0,.33,1.55,1.4,1.4,0,0,0,1.23.71,1.26,1.26,0,0,0,1-.5,2.54,2.54,0,0,0,.41-1.59,2.64,2.64,0,0,0-.42-1.67,1.32,1.32,0,0,0-1.07-.51,1.37,1.37,0,0,0-1.07.5,2.31,2.31,0,0,0-.42,1.51" transform="translate(-19.02 -18.14)"/><path class="cls-4" d="M283.45,28.76h1.9L287,33.55l1.58-4.79h1.84L288,35.25l-.42,1.17a5,5,0,0,1-.45.9,1.84,1.84,0,0,1-.49.51,2,2,0,0,1-.68.3,3.6,3.6,0,0,1-.91.11,4.88,4.88,0,0,1-1-.11l-.16-1.4a3.63,3.63,0,0,0,.76.09,1.14,1.14,0,0,0,.92-.37,2.53,2.53,0,0,0,.46-.93Z" transform="translate(-19.02 -18.14)"/><path class="cls-4" d="M210.85,44.36v1.42h-1.22V48.5a6.86,6.86,0,0,0,0,1,.41.41,0,0,0,.16.23.49.49,0,0,0,.3.09,2.3,2.3,0,0,0,.72-.18L211,51a3.54,3.54,0,0,1-1.41.26,2.21,2.21,0,0,1-.87-.16,1.29,1.29,0,0,1-.57-.42,1.69,1.69,0,0,1-.25-.69,8.32,8.32,0,0,1-.06-1.26V45.78H207V44.36h.82V43l1.79-1v2.38Z" transform="translate(-19.02 -18.14)"/><path class="cls-4" d="M213.87,41.8v3.42a2.6,2.6,0,0,1,2.06-1,2.51,2.51,0,0,1,1.11.23,1.8,1.8,0,0,1,.75.58,2.23,2.23,0,0,1,.34.79,7.18,7.18,0,0,1,.09,1.34v4h-1.78V47.54a5.73,5.73,0,0,0-.1-1.35.89.89,0,0,0-.36-.45,1.18,1.18,0,0,0-.65-.17,1.43,1.43,0,0,0-.79.22,1.25,1.25,0,0,0-.51.65,3.83,3.83,0,0,0-.16,1.28V51.1h-1.79V41.8Z" transform="translate(-19.02 -18.14)"/><path class="cls-4" d="M223.94,49l1.77.29a2.9,2.9,0,0,1-1.08,1.49,3.18,3.18,0,0,1-1.85.51,3,3,0,0,1-2.6-1.14,3.85,3.85,0,0,1-.67-2.33,3.68,3.68,0,0,1,.88-2.62,2.85,2.85,0,0,1,2.21-.95,3,3,0,0,1,2.38,1,4.43,4.43,0,0,1,.83,3h-4.47a1.81,1.81,0,0,0,.43,1.23,1.38,1.38,0,0,0,1,.44,1.09,1.09,0,0,0,.7-.23,1.4,1.4,0,0,0,.44-.73m.1-1.81a1.75,1.75,0,0,0-.4-1.17,1.25,1.25,0,0,0-.93-.41,1.24,1.24,0,0,0-1,.43,1.63,1.63,0,0,0-.38,1.15Z" transform="translate(-19.02 -18.14)"/><polygon class="cls-4" points="211.87 32.96 211.87 23.66 218.77 23.66 218.77 25.23 213.75 25.23 213.75 27.3 218.42 27.3 218.42 28.86 213.75 28.86 213.75 31.39 218.95 31.39 218.95 32.96 211.87 32.96"/><path class="cls-4" d="M244,51.1v-1a2.5,2.5,0,0,1-1,.85,2.67,2.67,0,0,1-1.26.31,2.56,2.56,0,0,1-1.22-.29,1.76,1.76,0,0,1-.78-.84,3.74,3.74,0,0,1-.25-1.49V44.36h1.79v3.1a8.14,8.14,0,0,0,.1,1.74.93.93,0,0,0,.36.51,1.12,1.12,0,0,0,.66.19,1.43,1.43,0,0,0,.82-.26,1.23,1.23,0,0,0,.49-.62,7.17,7.17,0,0,0,.13-1.82V44.36h1.79V51.1Z" transform="translate(-19.02 -18.14)"/><path class="cls-4" d="M249.19,51.1h-1.78V44.36h1.66v1a2.93,2.93,0,0,1,.76-.9,1.44,1.44,0,0,1,.77-.21,2.32,2.32,0,0,1,1.18.33l-.56,1.56a1.6,1.6,0,0,0-.83-.29,1,1,0,0,0-.64.2,1.46,1.46,0,0,0-.41.75,10.52,10.52,0,0,0-.15,2.26Z" transform="translate(-19.02 -18.14)"/><path class="cls-4" d="M252.13,47.64a3.64,3.64,0,0,1,.44-1.72,2.93,2.93,0,0,1,1.24-1.27,3.6,3.6,0,0,1,1.79-.44,3.38,3.38,0,0,1,2.51,1,3.44,3.44,0,0,1,1,2.51,3.48,3.48,0,0,1-1,2.54,3.34,3.34,0,0,1-2.48,1,3.91,3.91,0,0,1-1.77-.42,2.8,2.8,0,0,1-1.28-1.22,4.12,4.12,0,0,1-.44-2m1.83.09a2.24,2.24,0,0,0,.48,1.54,1.56,1.56,0,0,0,2.34,0,2.25,2.25,0,0,0,.47-1.55,2.18,2.18,0,0,0-.47-1.52,1.54,1.54,0,0,0-2.34,0,2.19,2.19,0,0,0-.48,1.53" transform="translate(-19.02 -18.14)"/><path class="cls-4" d="M260.43,44.36h1.67v1a2.49,2.49,0,0,1,2.1-1.14,2.54,2.54,0,0,1,2,.92,3.7,3.7,0,0,1,.82,2.56,3.81,3.81,0,0,1-.83,2.63,2.55,2.55,0,0,1-2,.93,2.28,2.28,0,0,1-1-.22,3.39,3.39,0,0,1-.95-.76v3.4h-1.79Zm1.77,3.26a2.63,2.63,0,0,0,.45,1.68,1.39,1.39,0,0,0,1.1.54,1.29,1.29,0,0,0,1-.5,2.53,2.53,0,0,0,.41-1.63,2.47,2.47,0,0,0-.42-1.58,1.31,1.31,0,0,0-1-.51,1.39,1.39,0,0,0-1.09.5,2.26,2.26,0,0,0-.43,1.5" transform="translate(-19.02 -18.14)"/><path class="cls-4" d="M272.33,49l1.78.29A2.9,2.9,0,0,1,273,50.74a3.23,3.23,0,0,1-1.86.51,3,3,0,0,1-2.6-1.14,3.91,3.91,0,0,1-.66-2.33,3.72,3.72,0,0,1,.87-2.62,2.87,2.87,0,0,1,2.22-.95,3,3,0,0,1,2.37,1,4.38,4.38,0,0,1,.83,3h-4.47a1.86,1.86,0,0,0,.43,1.23,1.38,1.38,0,0,0,1,.44,1.12,1.12,0,0,0,.71-.23,1.39,1.39,0,0,0,.43-.73m.1-1.81A1.65,1.65,0,0,0,272,46a1.22,1.22,0,0,0-.93-.41,1.25,1.25,0,0,0-1,.43,1.63,1.63,0,0,0-.37,1.15Z" transform="translate(-19.02 -18.14)"/><path class="cls-4" d="M277,46.42l-1.62-.29a2.5,2.5,0,0,1,.94-1.45,3.37,3.37,0,0,1,2-.47,4.25,4.25,0,0,1,1.78.28,1.78,1.78,0,0,1,.82.72,3.63,3.63,0,0,1,.24,1.59l0,2.09a8.1,8.1,0,0,0,.08,1.31,3.83,3.83,0,0,0,.33.9h-1.77c-.05-.12-.1-.29-.17-.53l-.06-.2a3.38,3.38,0,0,1-1,.66,2.78,2.78,0,0,1-1.11.22,2.27,2.27,0,0,1-1.64-.56,1.88,1.88,0,0,1-.6-1.43,1.94,1.94,0,0,1,.27-1,1.79,1.79,0,0,1,.76-.68,6,6,0,0,1,1.42-.42,9.74,9.74,0,0,0,1.74-.44v-.17a.93.93,0,0,0-.26-.74,1.57,1.57,0,0,0-1-.22,1.33,1.33,0,0,0-.74.19,1.29,1.29,0,0,0-.43.66m2.39,1.44a10.73,10.73,0,0,1-1.09.28,3.17,3.17,0,0,0-1,.31.74.74,0,0,0-.35.63.84.84,0,0,0,.28.64A1,1,0,0,0,278,50a1.56,1.56,0,0,0,.92-.32,1.12,1.12,0,0,0,.43-.59,3.86,3.86,0,0,0,.07-.87Z" transform="translate(-19.02 -18.14)"/><path class="cls-4" d="M289,51.1h-1.79V47.66a5.16,5.16,0,0,0-.11-1.41,1,1,0,0,0-1-.68,1.41,1.41,0,0,0-.83.26,1.25,1.25,0,0,0-.51.67,5.92,5.92,0,0,0-.13,1.55V51.1h-1.79V44.36h1.66v1a2.7,2.7,0,0,1,2.22-1.14,2.74,2.74,0,0,1,1.08.21,1.78,1.78,0,0,1,.74.54,2,2,0,0,1,.35.75,6,6,0,0,1,.1,1.2Z" transform="translate(-19.02 -18.14)"/><path class="cls-4" d="M294.44,41.8h1.88v5a9.91,9.91,0,0,0,.07,1.55,1.52,1.52,0,0,0,.57.92,2,2,0,0,0,1.24.34,1.94,1.94,0,0,0,1.21-.32,1.33,1.33,0,0,0,.49-.81,11.18,11.18,0,0,0,.08-1.58V41.8h1.88v4.88a12.75,12.75,0,0,1-.15,2.37,2.67,2.67,0,0,1-.57,1.17,2.77,2.77,0,0,1-1.09.76,4.73,4.73,0,0,1-1.79.28,5.05,5.05,0,0,1-2-.31,2.84,2.84,0,0,1-1.09-.8,2.6,2.6,0,0,1-.53-1,11.52,11.52,0,0,1-.18-2.36Z" transform="translate(-19.02 -18.14)"/><path class="cls-4" d="M310,51.1h-1.78V47.66a5,5,0,0,0-.12-1.41,1,1,0,0,0-1-.68,1.41,1.41,0,0,0-.83.26,1.31,1.31,0,0,0-.51.67,5.92,5.92,0,0,0-.13,1.55V51.1h-1.79V44.36h1.66v1a2.7,2.7,0,0,1,2.22-1.14,2.67,2.67,0,0,1,1.08.21,1.78,1.78,0,0,1,.74.54,1.85,1.85,0,0,1,.35.75,5.29,5.29,0,0,1,.1,1.2Z" transform="translate(-19.02 -18.14)"/><path class="cls-4" d="M311.77,41.8h1.78v1.65h-1.78Zm0,2.56h1.78V51.1h-1.78Z" transform="translate(-19.02 -18.14)"/><path class="cls-4" d="M315,47.64a3.52,3.52,0,0,1,.44-1.72,2.93,2.93,0,0,1,1.24-1.27,3.57,3.57,0,0,1,1.79-.44,3.38,3.38,0,0,1,2.51,1,3.43,3.43,0,0,1,1,2.51,3.47,3.47,0,0,1-1,2.54,3.35,3.35,0,0,1-2.49,1,3.91,3.91,0,0,1-1.77-.42,2.78,2.78,0,0,1-1.27-1.22,4,4,0,0,1-.44-2m1.83.09a2.24,2.24,0,0,0,.47,1.54,1.57,1.57,0,0,0,2.35,0,2.3,2.3,0,0,0,.47-1.55,2.23,2.23,0,0,0-.47-1.52,1.55,1.55,0,0,0-2.35,0,2.19,2.19,0,0,0-.47,1.53" transform="translate(-19.02 -18.14)"/><path class="cls-4" d="M329.45,51.1h-1.78V47.66a5.62,5.62,0,0,0-.11-1.41,1.07,1.07,0,0,0-.38-.5,1,1,0,0,0-.62-.18,1.46,1.46,0,0,0-.83.26,1.29,1.29,0,0,0-.5.67,5.79,5.79,0,0,0-.14,1.55V51.1h-1.78V44.36H325v1a2.68,2.68,0,0,1,2.22-1.14,2.74,2.74,0,0,1,1.08.21A1.85,1.85,0,0,1,329,45a2,2,0,0,1,.34.75,5.29,5.29,0,0,1,.1,1.2Z" transform="translate(-19.02 -18.14)"/><rect class="cls-5" x="120.38" width="60.27" height="40.93"/><rect class="cls-4" x="122.06" y="1.47" width="56.91" height="37.94"/><polygon class="cls-6" points="149.31 9.74 150.51 8.86 151.71 9.74 151.25 8.32 152.47 7.44 150.97 7.44 150.51 6.01 150.05 7.44 148.55 7.44 149.76 8.32 149.31 9.74"/><polygon class="cls-6" points="143.09 11.41 144.29 10.53 145.49 11.41 145.04 9.99 146.26 9.11 144.75 9.11 144.29 7.68 143.83 9.11 142.33 9.11 143.55 9.99 143.09 11.41"/><polygon class="cls-6" points="139.75 12.23 139.29 13.67 137.78 13.67 139 14.55 138.55 15.96 139.75 15.09 140.95 15.96 140.49 14.55 141.71 13.67 140.21 13.67 139.75 12.23"/><polygon class="cls-6" points="138.08 21.29 139.28 22.17 138.82 20.75 140.04 19.88 138.54 19.88 138.08 18.44 137.62 19.88 136.12 19.88 137.34 20.75 136.88 22.17 138.08 21.29"/><polygon class="cls-6" points="140.21 26.1 139.75 24.67 139.29 26.11 137.78 26.1 139 26.98 138.55 28.4 139.75 27.52 140.95 28.4 140.49 26.98 141.71 26.1 140.21 26.1"/><polygon class="cls-6" points="144.76 30.66 144.3 29.23 143.84 30.66 142.34 30.66 143.56 31.54 143.1 32.95 144.3 32.08 145.5 32.95 145.05 31.54 146.27 30.66 144.76 30.66"/><polygon class="cls-6" points="150.97 32.31 150.51 30.87 150.05 32.31 148.55 32.31 149.77 33.19 149.31 34.6 150.51 33.73 151.71 34.6 151.25 33.19 152.47 32.31 150.97 32.31"/><polygon class="cls-6" points="157.18 30.66 156.72 29.23 156.26 30.66 154.75 30.66 155.97 31.54 155.52 32.95 156.72 32.08 157.92 32.95 157.46 31.54 158.68 30.66 157.18 30.66"/><polygon class="cls-6" points="161.74 26.1 161.27 24.67 160.81 26.11 159.31 26.1 160.53 26.98 160.07 28.4 161.27 27.52 162.47 28.4 162.02 26.98 163.24 26.1 161.74 26.1"/><polygon class="cls-6" points="164.89 19.86 163.38 19.86 162.92 18.42 162.46 19.86 160.96 19.86 162.18 20.74 161.72 22.15 162.92 21.28 164.12 22.15 163.67 20.74 164.89 19.86"/><polygon class="cls-6" points="160.07 15.95 161.27 15.07 162.47 15.95 162.02 14.53 163.24 13.65 161.74 13.65 161.27 12.22 160.81 13.65 159.31 13.65 160.53 14.53 160.07 15.95"/><polygon class="cls-6" points="156.74 7.68 156.28 9.12 154.77 9.11 155.99 9.99 155.53 11.41 156.74 10.53 157.94 11.41 157.48 9.99 158.7 9.11 157.19 9.11 156.74 7.68"/><path class="cls-3" d="M53.81,48.72c.27,0,.49,0,.77,0V45.6a4.76,4.76,0,0,0-4.06,1.73V45.77H47.24v4.86c1.25-.13,2.51-.26,3.79-.37a2.84,2.84,0,0,1,2.78-1.54" transform="translate(-19.02 -18.14)"/><path class="cls-3" d="M61.9,48.41a2.9,2.9,0,0,1,2.26,1c1.24,0,2.5-.08,3.77-.1a6.24,6.24,0,0,0-6-3.72,6.21,6.21,0,0,0-6.25,4.28q1.89-.14,3.81-.24a2.89,2.89,0,0,1,2.44-1.23" transform="translate(-19.02 -18.14)"/><path class="cls-3" d="M22.55,51.18H29.7V48.41H22.55V45.07h8.09V42.21H19V55.35l3.53-.78Z" transform="translate(-19.02 -18.14)"/><path class="cls-3" d="M36.33,52V45.77H32.9v6.68c0,.06,0,.1,0,.15l3.42-.55V52" transform="translate(-19.02 -18.14)"/><path class="cls-3" d="M44.87,45.77H41.45v5.55l3.42-.43Z" transform="translate(-19.02 -18.14)"/><path class="cls-3" d="M74.33,49.28a2.92,2.92,0,0,1,2.14-.87,2.89,2.89,0,0,1,2.2.93c1.3,0,2.61.07,3.93.13a5.62,5.62,0,0,0-5.53-3.87,4.6,4.6,0,0,0-3.72,1.53V45.77H70.08v3.51h4.25" transform="translate(-19.02 -18.14)"/><path class="cls-3" d="M90.82,48.19a2.79,2.79,0,0,1,2.78,2l3.24.29a5.8,5.8,0,0,0-6-4.85,6.08,6.08,0,0,0-6,4l3.33.19a2.79,2.79,0,0,1,2.64-1.57" transform="translate(-19.02 -18.14)"/><path class="cls-4" d="M30.93,57.6V54.74H22.55v-.17L19,55.35V57.6Z" transform="translate(-19.02 -18.14)"/><path class="cls-4" d="M50.67,57.6V52A4.06,4.06,0,0,1,51,50.26c-1.28.11-2.54.24-3.79.37v7Z" transform="translate(-19.02 -18.14)"/><path class="cls-4" d="M61.9,57.77c3.76,0,6.48-2.53,6.48-6.09a6.33,6.33,0,0,0-.45-2.37l-3.77.11a3.43,3.43,0,0,1,.75,2.26,3,3,0,1,1-6,0,3.52,3.52,0,0,1,.59-2q-1.92.11-3.81.24a6.58,6.58,0,0,0-.25,1.8c0,3.56,2.74,6.09,6.5,6.09" transform="translate(-19.02 -18.14)"/><path class="cls-4" d="M38,57.77a4.79,4.79,0,0,0,3.67-1.58v1.4h3.25v-6.7l-3.42.43v.3c0,2.17-1.15,3.18-2.73,3.18s-2.36-.85-2.39-2.75l-3.42.55c.06,3.54,2.12,5.17,5,5.17" transform="translate(-19.02 -18.14)"/><path class="cls-4" d="M73.51,61.86V56.34a4.56,4.56,0,0,0,3.56,1.43A5.75,5.75,0,0,0,83,51.68a6.84,6.84,0,0,0-.36-2.22l-3.93-.12a3.4,3.4,0,0,1,.81,2.34,3,3,0,1,1-6,0,3.38,3.38,0,0,1,.87-2.4H70.08V61.86Z" transform="translate(-19.02 -18.14)"/><path class="cls-4" d="M91.24,57.77a6.17,6.17,0,0,0,4.87-1.91l-1.82-2a4,4,0,0,1-3,1.14,3.15,3.15,0,0,1-3.38-2.37h8.94c0-.29.07-.66.07-.92a7.53,7.53,0,0,0-.11-1.28l-3.24-.29a3.89,3.89,0,0,1,.12.49H87.9a3.09,3.09,0,0,1,.28-.89l-3.33-.19a6.31,6.31,0,0,0-.36,2.11c0,3.52,2.66,6.09,6.75,6.09" transform="translate(-19.02 -18.14)"/></g></svg>